<svg width="38" height="34" viewBox="0 0 38 34" fill="none" xmlns="http://www.w3.org/2000/svg">
<path d="M24.0176 2.49968C24.4192 2.50172 24.8182 2.57309 25.1964 2.71062L25.1954 2.71159C25.6273 2.86857 26.0244 3.10833 26.3633 3.41862C26.6599 3.69014 26.9074 4.01016 27.0948 4.36491L27.1719 4.51921L27.2403 4.67741C27.3703 4.99602 27.4534 5.33185 27.4854 5.67448L27.4971 5.84636L27.5001 6.01823C27.498 6.41959 27.4266 6.81797 27.2891 7.19597L26.7315 8.72722C27.0375 8.6092 27.3595 8.53411 27.6876 8.50554L27.8594 8.4948C28.2049 8.48182 28.5505 8.51977 28.8848 8.60808L29.0508 8.65691L29.2149 8.71355C29.5879 8.8528 29.9347 9.05481 30.2403 9.3112L36.2403 14.3112L36.3839 14.4382C36.6649 14.6997 36.9014 15.0053 37.0831 15.3434L37.169 15.5153L37.2462 15.6911C37.4136 16.1064 37.5 16.5507 37.5001 16.9997C37.5001 17.5129 37.3867 18.0203 37.169 18.485C36.9785 18.8916 36.7117 19.2571 36.3839 19.5622L36.2403 19.6891L30.2403 24.6891C29.8905 24.9826 29.4861 25.205 29.0508 25.3434C28.6109 25.4833 28.1475 25.5348 27.6876 25.4948C27.2273 25.4547 26.7786 25.324 26.3692 25.11C25.9599 24.8961 25.5974 24.6026 25.3018 24.2477C25.0062 23.8928 24.783 23.483 24.6465 23.0417C24.5101 22.6004 24.4632 22.1362 24.5069 21.6764L24.5274 21.5046C24.5854 21.1055 24.7114 20.7187 24.9014 20.362L24.9874 20.2116C25.1944 19.8654 25.4598 19.5567 25.7725 19.3005L28.5323 16.9997L25.7598 14.6891V14.6882C25.4224 14.4089 25.1407 14.0692 24.9288 13.6862L19.2891 29.195C19.0436 29.8703 18.5965 30.4546 18.0079 30.8669C17.42 31.2786 16.7197 31.4983 16.002 31.4987L16.003 31.4997L16.001 31.4987L16.0001 31.4997V31.4987C15.5918 31.4989 15.1871 31.4272 14.8038 31.2868V31.2887C13.9319 30.9717 13.2218 30.3207 12.8292 29.4801C12.4365 28.6396 12.3936 27.6775 12.71 26.8053V26.8044L13.2667 25.2731C12.9612 25.3908 12.64 25.4663 12.3126 25.4948C11.8524 25.5348 11.3885 25.4834 10.9483 25.3434C10.5132 25.2051 10.1096 24.9825 9.75983 24.6891L3.75983 19.6891C3.36565 19.3608 3.04881 18.9496 2.83112 18.485C2.6134 18.0203 2.50006 17.5129 2.50006 16.9997C2.50011 16.4866 2.61345 15.9799 2.83112 15.5153L2.91705 15.3434C3.12897 14.949 3.41494 14.5986 3.75983 14.3112L9.75983 9.3112L9.76569 9.30534L9.77252 9.30046C10.4422 8.75176 11.2896 8.47205 12.1505 8.5114L12.3223 8.52312L12.4942 8.54362C13.3466 8.66748 14.1258 9.10237 14.6797 9.76726C15.2707 10.4767 15.5577 11.3913 15.4776 12.3112C15.3975 13.2311 14.9568 14.0827 14.252 14.6794L14.2403 14.6891L11.4669 16.9997L14.2276 19.3005C14.5704 19.5814 14.8549 19.9258 15.0694 20.3132L20.71 4.80437C20.867 4.37233 21.1077 3.97545 21.418 3.6364L21.5372 3.51237C21.8225 3.2299 22.155 2.998 22.5196 2.8278L22.6768 2.75945C23.0485 2.60769 23.4438 2.52032 23.8458 2.50261L24.0176 2.49968Z" fill="#82BC4F" stroke="#16181D" stroke-width="4"/>
</svg>
